<?xml version="1.0" encoding="UTF-8" standalone="no"?>
<!DOCTYPE svg PUBLIC "-//W3C//DTD SVG 1.1//EN" "http://www.w3.org/Graphics/SVG/1.1/DTD/svg11.dtd">
<svg width="100%" height="100%" viewBox="0 0 709 517" version="1.1" xmlns="http://www.w3.org/2000/svg" xmlns:xlink="http://www.w3.org/1999/xlink" xml:space="preserve" xmlns:serif="http://www.serif.com/" style="fill-rule:evenodd;clip-rule:evenodd;stroke-linejoin:round;stroke-miterlimit:2;">
    <g transform="matrix(7.15064,0,0,8.0648,-239.834,-654.867)">
        <path d="M115.4,96.455C115.4,96.048 115.028,95.719 114.57,95.719L91.657,95.719C91.199,95.719 90.827,96.048 90.827,96.455L90.827,124.074C90.827,124.48 91.199,124.81 91.657,124.81L114.57,124.81C115.028,124.81 115.4,124.48 115.4,124.074L115.4,96.455Z" style="fill:white;"/>
    </g>
    <g transform="matrix(19.3045,0,0,13.2715,-1619.1,-1270.19)">
        <rect x="90.827" y="95.719" width="24.573" height="29.091" style="fill:white;"/>
    </g>
    <g transform="matrix(7.15064,0,0,8.0648,-488.432,-689.591)">
        <path d="M115.4,96.455C115.4,96.048 115.028,95.719 114.57,95.719L91.657,95.719C91.199,95.719 90.827,96.048 90.827,96.455L90.827,124.074C90.827,124.48 91.199,124.81 91.657,124.81L114.57,124.81C115.028,124.81 115.4,124.48 115.4,124.074L115.4,96.455Z" style="fill:white;"/>
    </g>
    <path d="M529.115,336.031C530.24,336.083 531.195,335.213 531.247,334.087C531.274,333.486 531.035,332.904 530.594,332.495L530.454,331.94L530.509,331.806C531.689,329.02 534.904,327.718 537.69,328.897C539.014,329.458 540.064,330.516 540.615,331.844C542.268,335.824 544.372,339.812 544.89,344.021C545.118,345.881 545.022,347.767 544.605,349.595C548.487,341.127 550.503,331.923 550.516,322.608C550.517,320.27 550.387,317.934 550.127,315.611C549.912,313.707 549.614,311.816 549.233,309.938C547.152,299.752 542.685,290.205 536.198,282.08C533.058,280.367 530.519,277.733 528.923,274.532C528.345,273.382 527.936,272.153 527.709,270.886C528.064,270.932 528.424,270.961 528.778,270.985C528.888,270.99 529.004,270.996 529.115,271.002L529.156,271.004C530.271,271.054 531.216,270.19 531.266,269.075C531.288,268.581 531.128,268.095 530.816,267.711C530.663,267.523 530.51,267.335 530.357,267.147C530.125,266.856 529.887,266.572 529.655,266.282C529.628,266.254 529.603,266.225 529.579,266.194C529.312,265.863 529.045,265.538 528.778,265.207C529.265,264.451 529.921,263.817 530.694,263.355C533.37,261.788 537.063,262.873 538.997,265.294C540.831,267.852 541.429,271.094 540.628,274.137C539.966,276.711 538.87,279.154 537.388,281.36C537.534,281.546 537.685,281.726 537.83,281.912C540.483,285.324 542.796,288.988 544.735,292.851C544.263,288.523 544.826,284.145 546.376,280.077C547.948,276.286 550.894,273.093 553.488,269.816C555.404,267.356 558.951,266.916 561.41,268.833C562.59,269.752 563.357,271.103 563.541,272.587L563.557,272.732C563.172,272.95 562.795,273.18 562.426,273.424C561.155,274.273 560.813,275.992 561.662,277.262C562.093,277.907 562.775,278.342 563.541,278.46L563.598,278.469C563.46,279.857 563.218,281.234 562.872,282.585C560.846,290.215 555.73,296.653 548.757,300.352C548.531,300.468 548.31,300.585 548.083,300.695C550.031,306.215 551.253,311.965 551.718,317.8C551.981,321.243 551.966,324.701 551.672,328.141L551.689,328.019C552.432,324.194 554.473,320.742 557.466,318.247C561.912,314.595 568.193,313.25 572.99,310.315C574.466,309.367 576.43,309.795 577.378,311.271C577.784,311.903 577.953,312.659 577.854,313.404L577.834,313.533C577.119,313.824 576.423,314.159 575.75,314.537C575.365,314.754 574.987,314.985 574.618,315.229C573.348,316.078 573.006,317.796 573.855,319.067C574.286,319.712 574.968,320.147 575.734,320.265L575.791,320.273C575.831,320.279 575.866,320.285 575.907,320.291C574.685,323.208 572.97,325.893 570.838,328.228C565.514,333.941 558.07,337.207 550.261,337.257L550.255,337.257C549.206,341.815 547.686,346.251 545.72,350.495L529.521,350.495C529.463,350.315 529.411,350.129 529.358,349.949C530.858,350.043 532.363,349.954 533.841,349.682C532.639,348.207 531.437,346.721 530.235,345.246C530.208,345.218 530.183,345.189 530.16,345.159C529.55,344.404 528.935,343.655 528.325,342.9L528.325,342.899C528.292,340.586 528.558,338.277 529.114,336.032L529.115,336.031L529.115,336.031Z" style="fill:rgb(242,242,242);fill-rule:nonzero;"/>
    <path d="M480.109,187.417C480.109,196.335 484.57,205.409 493.487,205.409C502.404,205.409 514.708,198.95 511.94,185.111C510.191,176.367 505.172,171.271 496.255,171.271C487.338,171.271 480.109,178.5 480.109,187.417L480.109,187.417Z" style="fill:rgb(47,46,65);fill-rule:nonzero;"/>
    <path d="M517.515,314.821C515.679,312.785 515.842,309.646 517.878,307.81C518.095,307.614 518.329,307.438 518.578,307.284L514.674,290.08L523.254,293.308L525.645,309.15C526.945,311.581 526.028,314.605 523.597,315.905C521.563,316.992 519.048,316.544 517.515,314.821L517.515,314.821L517.515,314.821Z" style="fill:rgb(160,97,106);fill-rule:nonzero;"/>
    <path d="M499.303,253.843L505.292,254.452C505.292,254.452 503.726,263.324 506.175,265.322C508.624,267.32 507.637,267.311 507.623,268.791C507.774,270.941 508.832,272.926 510.532,274.25C512.493,275.75 516.57,302.462 516.57,302.462L525.455,302.547C525.19,300.25 525.213,297.928 525.522,295.636C526.049,292.185 528.712,283.493 527.739,282.003C526.765,280.512 527.278,277.772 527.306,274.81C527.334,271.848 523.097,275.121 523.145,270.184C523.192,265.248 517.757,234.272 518.294,229.834C518.83,225.396 513.438,221.395 513.438,221.395L508.501,221.347L499.303,253.843L499.303,253.843Z" style="fill:rgb(230,230,230);fill-rule:nonzero;"/>
    <path d="M435.729,212.183C435.164,214.719 436.762,217.232 439.298,217.796C439.568,217.856 439.843,217.893 440.12,217.904L444.924,233.914L450.495,227.25L445.079,213.069C445.017,210.458 442.85,208.391 440.239,208.453C438.054,208.505 436.189,210.047 435.729,212.183L435.729,212.183Z" style="fill:rgb(160,97,106);fill-rule:nonzero;"/>
    <path d="M486.448,217.398C486.448,217.398 474.834,213.043 468.538,236.89L460.179,245.547L453.157,232.858L454.085,229.848L448.658,217.544L439.353,222.884L441.644,231.331L441.257,235.507L443.48,238.104L447.12,251.528L449.397,255.913C449.397,255.913 452.269,261.529 457.281,262.454C458.618,262.704 459.985,262.743 461.333,262.569C464.539,262.067 467.511,260.583 469.838,258.322C476.036,252.796 481.897,246.903 487.391,240.676L486.448,217.398L486.448,217.398Z" style="fill:rgb(230,230,230);fill-rule:nonzero;"/>
    <path d="M502.026,257.329L502.848,261.244L503.546,275.685L475.482,271.885L473.327,255.163L476.305,250.269L502.026,257.329Z" style="fill:rgb(160,97,106);fill-rule:nonzero;"/>
    <circle cx="492.923" cy="191.893" r="13.282" style="fill:rgb(160,97,106);"/>
    <path d="M515.177,222.952C512.985,217.782 508.449,213.975 502.977,212.712L502.927,212.702L500.297,209.162L489.627,210.232L487.677,214.232L482.617,217.242L482.607,217.242L482.597,217.252L479.947,218.832L471.157,229.122L471.147,229.132C468.539,230.874 466.769,233.618 466.257,236.712C466.125,237.596 466.081,238.49 466.127,239.382C466.417,244.852 469.837,249.722 470.307,250.372L471.457,256.842L471.687,258.172L473.757,258.472L502.917,262.642L503.727,262.762L503.967,262.792L504.807,260.622L504.807,260.602L512.937,239.332L516.587,229.842C516.597,227.473 516.117,225.127 515.177,222.952L515.177,222.952Z" style="fill:rgb(230,230,230);fill-rule:nonzero;"/>
    <path d="M506.823,195.375C506.703,195.356 506.582,195.331 506.462,195.312C504.39,194.944 502.318,194.583 500.253,194.209L500.063,189.527L497.56,193.721C491.851,195.616 486.51,194.545 481.486,192.182C479.829,191.395 478.221,190.508 476.671,189.527C475.59,182.932 478.316,177.734 485.319,177.071C485.537,177.05 485.693,176.868 485.883,176.773L485.889,176.767L485.889,176.766C486.212,176.614 486.542,176.469 486.871,176.336C492.136,174.278 498.115,175.437 502.23,179.313C506.386,183.542 508.115,189.589 506.823,195.375L506.823,195.375Z" style="fill:rgb(47,46,65);fill-rule:nonzero;"/>
    <path d="M519.907,302.492C519.32,298.569 518.355,294.711 517.027,290.972L517.027,290.962C515.916,287.801 514.53,284.743 512.887,281.822C512.882,281.822 512.877,281.818 512.877,281.813L512.877,281.812C510.512,277.41 507.426,273.435 503.747,270.052L503.357,269.642L503.257,269.642L475.097,268.952L474.807,268.952L474.487,268.942C474.487,268.942 474.367,269.292 474.137,269.952C474.128,269.994 474.115,270.034 474.097,270.072C474.017,270.332 473.917,270.632 473.797,270.962C473.727,271.182 473.647,271.412 473.567,271.662C473.477,271.932 473.377,272.212 473.277,272.512C472.497,274.842 471.357,278.222 469.957,282.412C469.747,283.052 469.527,283.712 469.297,284.402C463.957,300.472 455.367,326.732 447.867,351.622L474.467,351.622C477.047,344.162 479.787,333.522 479.787,333.522C480.857,332.252 480.797,328.802 480.797,328.802L489.157,320.022L495.177,351.622L520.437,351.622L520.627,316.452L520.627,316.152C520.824,311.586 520.583,307.012 519.907,302.492L519.907,302.492Z" style="fill:rgb(204,204,204);fill-rule:nonzero;"/>
    <path d="M501.734,176.437L501.734,176.448C501.733,177.143 501.821,177.836 501.998,178.508C502.026,178.626 502.06,178.749 502.099,178.867L502.099,178.873C502.862,181.307 504.722,183.243 507.123,184.104C507.297,184.172 507.476,184.228 507.656,184.278C508.034,184.388 508.421,184.467 508.812,184.514C509.164,184.564 509.518,184.588 509.873,184.587C510.151,184.588 510.428,184.575 510.704,184.548C511.35,184.482 511.985,184.337 512.596,184.116C512.691,184.088 512.785,184.054 512.876,184.014C512.922,183.998 512.967,183.979 513.011,183.958C517.162,182.221 519.118,177.448 517.381,173.297C517.329,173.173 517.273,173.05 517.215,172.928L517.21,172.923C516.811,172.087 516.269,171.327 515.61,170.677C514.139,169.212 513.491,165.541 511.257,165.541C511.15,165.539 511.044,165.543 510.937,165.552C509.438,165.603 506.668,168.836 505.489,169.6C504.614,170.153 503.855,170.872 503.255,171.716C502.629,172.584 502.182,173.569 501.942,174.612C501.804,175.211 501.734,175.823 501.734,176.437L501.734,176.437Z" style="fill:rgb(47,46,65);fill-rule:nonzero;"/>
    <path d="M511.679,173.602C512.943,175.074 514.922,175.646 516.707,176.412C523.104,179.218 527.703,185.001 528.996,191.866C529.49,194.62 529.425,197.471 530.205,200.156C530.98,202.841 532.899,205.475 535.653,205.941C537.517,206.259 539.385,205.539 541.138,204.829C542.102,204.441 543.067,204.052 544.031,203.662C543.025,201.138 542.021,198.615 541.018,196.092C542.63,198.473 544.504,200.666 546.605,202.628C550.06,201.235 553.518,199.842 556.98,198.449C548.464,198.481 549.917,190.214 548.012,181.92C546.965,177.362 538.047,174.276 536.299,169.94C533.568,163.141 525.843,159.844 519.045,162.574C516.115,163.751 513.701,165.934 512.237,168.731C510.489,169.428 510.438,172.149 511.679,173.602L511.679,173.602Z" style="fill:rgb(47,46,65);fill-rule:nonzero;"/>
    <path d="M475.509,270.973C471.532,272.01 468.313,274.926 466.889,278.781C466.385,279.871 466.398,281.129 466.925,282.208C467.337,282.978 468.254,283.326 469.073,283.022C469.895,282.579 470.551,281.88 470.942,281.032C471.515,279.942 472.007,278.813 472.415,277.652C473.083,275.9 474.509,272.975 472.474,271.605C470.762,270.453 468.496,270.901 466.57,270.822C464.489,270.736 462.176,269.939 461.437,267.782C460.718,265.685 462.403,263.712 464.22,262.914C466.439,261.994 468.969,262.235 470.974,263.557C472.926,264.91 474.319,266.926 474.895,269.229C474.984,269.601 474.755,269.975 474.383,270.064C474.029,270.149 473.669,269.945 473.561,269.597C473.051,267.46 471.705,265.616 469.825,264.479C467.957,263.401 465.636,263.492 463.858,264.712C462.925,265.293 462.492,266.423 462.797,267.479C463.266,268.415 464.149,269.077 465.179,269.263C467.375,269.794 469.672,269.107 471.86,269.808C473.898,270.33 475.196,272.325 474.849,274.399C474.621,275.644 474.252,276.859 473.75,278.02C473.322,279.213 472.823,280.38 472.254,281.513C471.385,283.155 469.819,284.933 467.751,284.452C465.395,283.903 464.835,281.151 465.34,279.128C466.706,274.459 470.43,270.854 475.141,269.639C475.513,269.55 475.887,269.78 475.975,270.152C476.06,270.505 475.856,270.864 475.509,270.973L475.509,270.973L475.509,270.973Z" style="fill:rgb(204,204,204);fill-rule:nonzero;"/>
    <path d="M579.547,352.622L415.547,352.622C411.683,352.618 408.552,349.486 408.547,345.622L408.547,122.622C408.552,118.758 411.683,115.626 415.547,115.622L579.547,115.622C583.411,115.626 586.543,118.758 586.547,122.622L586.547,345.622C586.543,349.486 583.411,352.618 579.547,352.622ZM415.547,117.622C412.787,117.625 410.55,119.862 410.547,122.622L410.547,345.622C410.55,348.382 412.787,350.619 415.547,350.622L579.547,350.622C582.307,350.619 584.544,348.382 584.547,345.622L584.547,122.622C584.544,119.862 582.307,117.625 579.547,117.622L415.547,117.622Z" style="fill:rgb(63,61,86);fill-rule:nonzero;"/>
    <path d="M605.61,34.099L140.317,34.099C139.319,34.078 138.528,33.252 138.549,32.254C138.57,31.287 139.349,30.507 140.317,30.486L605.61,30.486C606.608,30.508 607.399,31.334 607.378,32.332C607.357,33.299 606.578,34.079 605.61,34.099Z" style="fill:rgb(202,202,202);fill-rule:nonzero;"/>
    <path d="M696,248.622L643,248.622C635.82,248.622 630,242.802 630,235.622C630,228.442 635.82,222.622 643,222.622L696,222.622C703.18,222.622 709,228.442 709,235.622C709,242.802 703.18,248.622 696,248.622Z" style="fill:rgb(1,191,113);fill-rule:nonzero;"/>
    <path d="M315.979,303.031C314.854,303.083 313.9,302.213 313.848,301.087C313.82,300.486 314.059,299.904 314.501,299.495L314.641,298.94L314.585,298.806C313.406,296.02 310.191,294.718 307.404,295.897C306.081,296.458 305.03,297.516 304.48,298.844C302.827,302.824 300.723,306.812 300.205,311.021C299.976,312.881 300.073,314.767 300.489,316.595C296.607,308.127 294.591,298.923 294.578,289.608C294.577,287.27 294.707,284.934 294.967,282.611C295.182,280.707 295.48,278.816 295.861,276.938C297.942,266.752 302.409,257.205 308.896,249.08C312.036,247.367 314.575,244.733 316.172,241.532C316.75,240.382 317.159,239.153 317.385,237.886C317.031,237.932 316.671,237.961 316.317,237.985C316.206,237.99 316.09,237.996 315.98,238.002L315.938,238.004C314.823,238.054 313.879,237.19 313.828,236.075C313.806,235.581 313.966,235.095 314.278,234.711C314.431,234.523 314.584,234.335 314.737,234.147C314.97,233.856 315.208,233.572 315.44,233.282C315.467,233.254 315.492,233.225 315.515,233.194C315.783,232.863 316.05,232.538 316.317,232.207C315.829,231.451 315.173,230.817 314.401,230.355C311.724,228.788 308.031,229.873 306.098,232.294C304.264,234.852 303.666,238.094 304.466,241.137C305.129,243.711 306.224,246.154 307.706,248.36C307.561,248.546 307.41,248.726 307.265,248.912C304.611,252.324 302.299,255.988 300.36,259.851C300.831,255.523 300.269,251.145 298.718,247.077C297.147,243.286 294.201,240.093 291.607,236.816C289.691,234.356 286.144,233.916 283.685,235.833C282.505,236.752 281.738,238.103 281.553,239.587L281.538,239.732C281.923,239.95 282.3,240.18 282.669,240.424C283.94,241.273 284.282,242.992 283.433,244.262C283.002,244.907 282.32,245.342 281.553,245.46L281.497,245.469C281.634,246.857 281.877,248.234 282.223,249.585C284.249,257.215 289.364,263.653 296.338,267.352C296.564,267.468 296.785,267.585 297.011,267.695C295.063,273.215 293.841,278.965 293.376,284.8C293.113,288.243 293.129,291.701 293.423,295.141L293.405,295.019C292.662,291.194 290.622,287.742 287.628,285.247C283.182,281.595 276.901,280.25 272.105,277.314C270.629,276.367 268.664,276.795 267.716,278.271C267.31,278.903 267.142,279.659 267.24,280.404L267.26,280.532C267.975,280.824 268.671,281.159 269.344,281.537C269.73,281.754 270.107,281.985 270.476,282.229C271.747,283.078 272.089,284.796 271.24,286.067C270.809,286.712 270.127,287.147 269.36,287.265L269.304,287.273C269.263,287.279 269.228,287.285 269.188,287.291C270.409,290.208 272.124,292.893 274.257,295.228C279.581,300.941 287.024,304.207 294.834,304.257L294.84,304.257C295.888,308.814 297.408,313.251 299.374,317.495L315.574,317.495C315.632,317.315 315.684,317.129 315.736,316.949C314.237,317.043 312.731,316.953 311.254,316.682C312.456,315.207 313.657,313.721 314.859,312.246C314.886,312.218 314.911,312.189 314.935,312.159C315.545,311.404 316.16,310.655 316.77,309.9L316.77,309.899C316.802,307.586 316.537,305.277 315.98,303.031L315.98,303.031L315.979,303.031Z" style="fill:rgb(242,242,242);fill-rule:nonzero;"/>
    <g opacity="0.38">
        <path d="M285.221,279.497C282.718,277.448 282.35,273.759 284.399,271.256C284.617,270.989 284.859,270.742 285.121,270.518L271.882,235.909L282.462,238.15L293.695,271.439C295.643,274.044 295.11,277.733 292.506,279.681C290.327,281.31 287.315,281.234 285.221,279.497L285.221,279.497Z" style="fill:rgb(255,184,184);fill-rule:nonzero;"/>
        <path d="M290.667,241.592L278.787,192.152L273.677,177.772C273.672,177.767 273.668,177.76 273.667,177.752C272.835,175.403 271.095,173.486 268.837,172.432C266.578,171.35 263.978,171.228 261.627,172.092C261.427,172.162 261.23,172.242 261.037,172.332C260.627,172.52 260.23,172.733 259.847,172.972C257.642,174.362 256.111,176.603 255.617,179.162L254.717,183.882L254.337,185.892L268.367,234.932L268.367,234.952L273.247,252.032L275.507,259.912L275.507,259.922L278.127,269.092L278.187,269.282L284.477,268.862L284.487,268.862L285.437,268.792L292.637,268.312L293.677,268.242L290.667,241.592L290.667,241.592Z" style="fill:rgb(47,46,65);fill-rule:nonzero;"/>
        <path d="M242.437,159.047L268.898,212.561L285.638,269.465C250.371,276.342 206.118,291.053 202.933,269.954C204.896,211.128 211.079,192.364 223.844,166.862L242.437,159.047Z" style="fill:rgb(47,46,65);fill-rule:nonzero;"/>
        <path d="M277.817,317.622L256.087,317.622L247.277,287.852L241.077,317.242C241.057,317.372 241.047,317.492 241.027,317.622L217.867,317.622C218.617,308.422 219.987,292.422 220.637,290.152C221.557,286.932 220.637,286.932 218.797,285.092C218.387,284.682 218.247,283.042 218.287,280.752C218.397,272.862 220.547,257.232 220.547,257.232L223.097,252.512L223.977,250.872L269.397,249.272L269.787,249.262L270.627,252.922L271.657,257.432L273.467,265.342L275.137,271.652L275.227,271.972L275.227,273.842C274.943,274.494 274.813,275.202 274.847,275.912C274.847,276.552 276.287,296.492 277.817,317.622L277.817,317.622Z" style="fill:rgb(47,46,65);fill-rule:nonzero;"/>
        <path d="M239.336,166.983L242.454,159.522L252.106,159.691L262.17,173.927L272.733,218.35C272.733,218.35 276.527,250.801 272.733,252.514C268.939,254.227 222.998,253.315 222.998,253.315C225.125,235.791 226.71,217.963 228.381,207.313C233.903,172.116 236.509,179.523 239.336,166.983Z" style="fill:rgb(1,191,113);fill-rule:nonzero;"/>
        <path d="M252.106,159.691C252.106,159.691 272.896,171.71 273.709,177.983C274.522,184.256 277.245,261.04 277.245,261.04L269.893,256.289L267.883,228.304C269.285,203.438 265.865,184.902 258.911,171.008L252.106,159.691L252.106,159.691Z" style="fill:rgb(47,46,65);fill-rule:nonzero;"/>
        <g transform="matrix(0.160182,-0.987087,0.987087,0.160182,67.4084,363.282)">
            <circle cx="247.198" cy="142.026" r="14.169" style="fill:rgb(255,184,184);"/>
        </g>
        <path d="M229.739,141.185C230.372,144.056 231.513,146.79 233.109,149.259C233.533,150.101 234.166,150.82 234.947,151.346C235.764,151.87 236.838,151.736 237.5,151.027L237.845,150.746C237.169,150.33 236.565,149.806 236.058,149.195C235.548,148.574 235.37,147.744 235.579,146.968C235.833,146.184 236.662,145.741 237.456,145.966C238.285,146.291 238.79,147.491 239.658,147.306C240.36,147.153 240.507,146.227 240.507,145.5C240.481,141.696 242.319,136.29 243.743,136.455C245.181,136.534 246.62,136.341 247.987,135.887C249.356,135.433 250.799,135.248 252.238,135.345C252.34,135.358 252.442,135.377 252.551,135.396C252.781,134.673 253.099,133.981 253.495,133.334C253.451,134.115 253.489,134.898 253.61,135.67C254.755,136.142 255.938,136.516 257.146,136.787C258.461,136.972 261.353,140.904 261.487,140.502C261.717,139.779 262.034,139.087 262.431,138.44C262.387,139.221 262.425,140.004 262.546,140.777C262.553,140.808 262.553,140.834 262.559,140.866C263.197,140.017 263.587,138.983 263.37,139.774C265.508,134.936 264.678,131.471 261.314,127.392C260.659,126.515 259.791,125.819 258.793,125.369C257.777,124.922 256.601,125.038 255.691,125.675C252.897,123.114 248.934,122.268 245.338,123.467C241.834,124.686 239.134,125.401 238.598,129.077C235.614,128.751 232.708,130.165 231.124,132.715C229.614,135.264 229.119,138.288 229.739,141.185L229.739,141.185Z" style="fill:rgb(47,46,65);fill-rule:nonzero;"/>
        <path d="M190.034,276.001C188.831,272.999 190.289,269.59 193.291,268.387C193.611,268.258 193.942,268.159 194.28,268.088L199.389,231.388L207.573,238.456L201.345,273.034C201.794,276.254 199.546,279.229 196.326,279.678C193.631,280.053 191.03,278.533 190.034,276.001L190.034,276.001L190.034,276.001Z" style="fill:rgb(255,184,184);fill-rule:nonzero;"/>
        <path d="M235.127,178.032L234.737,174.472C234.37,171.184 232.305,168.33 229.297,166.952C228.155,166.422 226.916,166.133 225.657,166.102L225.647,166.102C221.859,166.014 218.387,168.205 216.837,171.662L210.597,185.612L194.847,233.962L189.757,260.262L195.257,261.072L203.227,262.242L203.287,262.252L205.117,262.522L230.687,194.082L230.697,194.062L235.477,181.272L235.127,178.032L235.127,178.032Z" style="fill:rgb(47,46,65);fill-rule:nonzero;"/>
    </g>
    <path d="M330.547,318.622L166.547,318.622C162.683,318.618 159.552,315.486 159.547,311.622L159.547,88.622C159.552,84.758 162.683,81.626 166.547,81.622L330.547,81.622C334.411,81.626 337.543,84.758 337.547,88.622L337.547,311.622C337.543,315.486 334.411,318.618 330.547,318.622ZM166.547,83.622C163.787,83.625 161.55,85.862 161.547,88.622L161.547,311.622C161.55,314.382 163.787,316.619 166.547,316.622L330.547,316.622C333.307,316.619 335.544,314.382 335.547,311.622L335.547,88.622C335.544,85.862 333.307,83.625 330.547,83.622L166.547,83.622Z" style="fill:none;fill-rule:nonzero;stroke:black;stroke-width:1px;"/>
    <path d="M66,248.622L13,248.622C5.82,248.622 0,242.802 0,235.622C0,228.442 5.82,222.622 13,222.622L66,222.622C73.18,222.622 79,228.442 79,235.622C79,242.802 73.18,248.622 66,248.622Z" style="fill:rgb(230,230,230);fill-rule:nonzero;"/>
    <path d="M92,299.622L39,299.622C31.82,299.622 26,293.802 26,286.622C26,279.442 31.82,273.622 39,273.622L92,273.622C99.18,273.622 105,279.442 105,286.622C105,293.802 99.18,299.622 92,299.622Z" style="fill:rgb(230,230,230);fill-rule:nonzero;"/>
    <g transform="matrix(0.0144438,-0.999896,0.999896,0.0144438,-123.038,458.821)">
        <rect x="170.229" y="240.61" width="2" height="102.43" style="fill:rgb(230,230,230);"/>
    </g>
    <path d="M226.736,297.142C224.821,297.143 223.074,296.053 222.233,294.333C221.023,291.851 222.054,288.858 224.536,287.648C227.018,286.438 230.011,287.469 231.221,289.951C232.432,292.433 231.401,295.426 228.919,296.636C228.239,296.967 227.492,297.14 226.736,297.142L226.736,297.142ZM226.725,289.141C225.068,289.142 223.726,290.487 223.728,292.144C223.728,292.599 223.832,293.047 224.031,293.456C224.759,294.943 226.554,295.559 228.042,294.831C229.529,294.104 230.145,292.308 229.417,290.821C228.914,289.793 227.87,289.141 226.725,289.141L226.725,289.141Z" style="fill:rgb(230,230,230);fill-rule:nonzero;"/>
    <g transform="matrix(0.0144438,-0.999896,0.999896,0.0144438,-91.7262,384.589)">
        <rect x="148.229" y="187.61" width="2" height="102.43" style="fill:rgb(230,230,230);"/>
    </g>
    <path d="M204.736,244.142C202.822,244.143 201.074,243.053 200.233,241.334C199.022,238.851 200.052,235.856 202.535,234.645C205.017,233.433 208.012,234.464 209.223,236.946C210.435,239.429 209.405,242.423 206.922,243.635C206.241,243.967 205.493,244.141 204.736,244.142L204.736,244.142ZM202.031,240.457C202.757,241.945 204.553,242.563 206.042,241.837C207.53,241.111 208.148,239.315 207.422,237.826C206.696,236.338 204.9,235.72 203.411,236.446C202.697,236.795 202.15,237.413 201.891,238.165C201.632,238.917 201.682,239.741 202.031,240.457Z" style="fill:rgb(230,230,230);fill-rule:nonzero;"/>
    <path d="M106,198.622L53,198.622C45.82,198.622 40,192.802 40,185.622C40,178.442 45.82,172.622 53,172.622L106,172.622C113.18,172.622 119,178.442 119,185.622C119,192.802 113.18,198.622 106,198.622Z" style="fill:rgb(230,230,230);fill-rule:nonzero;"/>
    <g transform="matrix(0.0144438,-0.999896,0.999896,0.0144438,-2.30919,375.307)">
        <rect x="188.229" y="137.61" width="2" height="102.43" style="fill:rgb(230,230,230);"/>
    </g>
    <path d="M244.736,194.142C242.822,194.143 241.074,193.053 240.233,191.334C239.022,188.851 240.052,185.856 242.535,184.645C245.017,183.433 248.012,184.464 249.223,186.946C250.435,189.429 249.405,192.423 246.922,193.635C246.241,193.967 245.493,194.141 244.736,194.142L244.736,194.142ZM242.031,190.457C242.757,191.945 244.553,192.563 246.042,191.837C247.53,191.111 248.148,189.315 247.422,187.826C246.696,186.338 244.9,185.72 243.411,186.446C242.697,186.795 242.15,187.413 241.891,188.165C241.632,188.917 241.683,189.741 242.031,190.457Z" style="fill:rgb(230,230,230);fill-rule:nonzero;"/>
    <g transform="matrix(0.014444,-0.999896,0.999896,0.014444,325.943,794.702)">
        <rect x="565.104" y="180.794" width="2" height="102.43" style="fill:rgb(63,61,86);"/>
    </g>
    <path d="M510.61,236.694C507.843,236.7 505.596,234.463 505.589,231.697C505.583,228.93 507.82,226.683 510.587,226.676C513.353,226.67 515.601,228.907 515.607,231.674C515.611,233.592 514.52,235.344 512.797,236.186C512.116,236.519 511.368,236.692 510.61,236.694L510.61,236.694ZM510.603,228.69C508.945,228.69 507.601,230.034 507.6,231.692C507.6,233.35 508.945,234.694 510.603,234.694C512.261,234.694 513.605,233.35 513.605,231.692C513.605,231.236 513.501,230.786 513.302,230.377L513.302,230.376C512.798,229.345 511.751,228.691 510.603,228.69L510.603,228.69Z" style="fill:rgb(63,61,86);fill-rule:nonzero;"/>
    <path d="M696,351.622L643,351.622C635.82,351.622 630,345.802 630,338.622C630,331.442 635.82,325.622 643,325.622L696,325.622C703.18,325.622 709,331.442 709,338.622C709,345.802 703.18,351.622 696,351.622Z" style="fill:rgb(1,191,113);fill-rule:nonzero;"/>
    <g transform="matrix(0.014444,-0.999896,0.999896,0.014444,222.954,896.214)">
        <rect x="565.104" y="283.794" width="2" height="102.43" style="fill:rgb(63,61,86);"/>
    </g>
    <path d="M510.609,339.693C507.847,339.696 505.606,337.459 505.603,334.697C505.6,331.935 507.837,329.694 510.599,329.691C512.513,329.689 514.261,330.78 515.099,332.5C516.309,334.985 515.274,337.98 512.789,339.189C512.11,339.52 511.365,339.692 510.609,339.693L510.609,339.693ZM510.603,331.69C508.945,331.689 507.6,333.033 507.6,334.691C507.6,336.35 508.944,337.694 510.602,337.694C512.26,337.695 513.605,336.351 513.605,334.692C513.605,334.237 513.501,333.787 513.302,333.377C512.798,332.345 511.751,331.691 510.603,331.69Z" style="fill:rgb(63,61,86);fill-rule:nonzero;"/>
    <path d="M378.97,351.501C381.504,349.467 381.909,345.764 379.875,343.231C379.678,342.985 379.462,342.756 379.228,342.545L388.753,314.813L381.73,310.293L370.658,343.313C368.669,345.877 369.136,349.567 371.699,351.556C373.844,353.22 376.85,353.197 378.97,351.501L378.97,351.501L378.97,351.501Z" style="fill:rgb(255,182,182);fill-rule:nonzero;"/>
    <path d="M387.098,274.984C385.416,282.1 382.905,288.316 383.245,291.301C383.582,294.278 379.944,297.139 381.1,299.492C382.254,301.851 378.702,302.104 379.662,305.9C380.626,309.705 381.253,310.519 380.439,311.145C379.619,311.769 375.29,326.29 375.29,326.29L377.829,327.221L385.24,329.924L402.654,301.282L402.601,266.125L398.277,265.986C397.239,266.375 396.089,266.842 394.943,267.405C391.44,269.096 387.897,271.595 387.098,274.984L387.098,274.984Z" style="fill:rgb(1,191,113);fill-rule:nonzero;"/>
    <path d="M451.224,498.062L460.28,498.062L464.588,463.133L451.222,463.133L451.224,498.062Z" style="fill:rgb(255,182,182);fill-rule:nonzero;"/>
    <path d="M463.293,498.878L463.293,492.739L460.912,492.884L451.221,493.458L448.979,493.596L447.264,514.157L447.172,515.259L453.602,515.259L453.809,514.165L454.743,509.189L457.154,514.165L457.682,515.259L474.729,515.259C476.841,515.246 478.548,513.535 478.557,511.424C479.276,508.064 465.099,500.799 463.293,498.878Z" style="fill:rgb(47,46,65);fill-rule:nonzero;"/>
    <path d="M345.131,488.205L353.008,492.674L373.992,464.42L362.367,457.825L345.131,488.205Z" style="fill:rgb(255,182,182);fill-rule:nonzero;"/>
    <path d="M355.23,494.867L358.254,489.531L356.126,488.483L347.407,484.204L345.386,483.208L335.458,497.745L333.123,501.159L335.764,502.659L338.711,504.336L342.707,499.62L342.263,506.349L356.187,514.256L356.195,514.256L357.09,514.762C358.932,515.802 361.267,515.154 362.311,513.315C364.592,510.743 355.85,497.439 355.23,494.867Z" style="fill:rgb(47,46,65);fill-rule:nonzero;"/>
    <path d="M406.283,326.602C394.148,334.644 382.136,411.901 385.288,410.639L356.686,463.944L371.305,473.828L424.166,389.247L441.737,426.664L448.994,484.096L467.195,482.796C462.466,418.095 450.657,349.854 440.871,323.458L406.283,326.602L406.283,326.602Z" style="fill:rgb(47,46,65);fill-rule:nonzero;"/>
    <path d="M397.07,332.34L396.938,332.837C409.767,339.974 444.882,331.707 444.882,331.707L439.222,313.47L446.863,272.957C446.822,266.417 441.486,261.149 434.946,261.19C434.678,261.192 434.409,261.202 434.141,261.222L424.922,254.393L411.798,254.846L403.019,264.543L397.774,266.417L393.699,267.869C392.875,268.611 391.976,269.467 391.115,270.41L397.56,308.77L400.302,320.241L397.07,332.34Z" style="fill:rgb(1,191,113);fill-rule:nonzero;"/>
    <circle cx="418.373" cy="236.032" r="16.839" style="fill:rgb(255,182,182);"/>
    <path d="M396.231,230.166C396.281,230.185 396.325,230.204 396.376,230.223C396.472,230.265 396.57,230.301 396.671,230.331C397.313,230.566 397.982,230.72 398.663,230.788C398.953,230.82 399.245,230.835 399.537,230.835C399.912,230.836 400.286,230.812 400.657,230.762C401.07,230.711 401.478,230.628 401.877,230.514C402.067,230.463 402.254,230.402 402.438,230.333C404.972,229.432 406.937,227.396 407.746,224.831L407.746,224.825C407.789,224.701 407.825,224.575 407.854,224.448C408.041,223.74 408.136,223.011 408.136,222.279L408.136,222.266C408.141,220.481 407.585,218.739 406.545,217.288C405.919,216.399 405.195,216.251 405.601,215.235C406.896,211.995 401.597,209.347 398.469,210.771C398.356,210.76 398.242,210.756 398.129,210.758C396.022,210.752 395.241,213.863 393.985,215.615L394.021,215.627C394.864,215.922 395.308,216.844 395.013,217.686C394.848,218.158 394.474,218.526 394.001,218.685C393.165,218.957 392.32,219.198 391.466,219.407C388.651,222.731 391.878,232.458 396.231,230.166L396.231,230.166Z" style="fill:rgb(47,46,65);fill-rule:nonzero;"/>
    <path d="M397.781,239.081C398.581,242.683 400.502,245.939 403.266,248.383C406.115,250.685 419.515,256.14 420.646,251.471C419.89,254.732 420.345,255.979 421.562,257.145C421.771,256.863 421.991,256.593 422.219,256.329C423.055,255.366 424.058,254.561 425.18,253.953C425.209,255.924 425.068,257.893 424.757,259.838C425.258,260.301 425.735,260.789 426.187,261.301C428.354,254.842 433.104,247.105 429.665,241.224C428.3,238.89 429.438,238.57 430.647,238.302C432.757,237.835 433.921,229.173 434.423,227.068C435.046,224.428 435.293,221.391 433.657,219.224C432.021,217.057 427.883,216.964 427.047,219.547L425.305,217.178C423.053,212.223 417.077,213.214 411.673,213.855C406.194,214.685 401.476,218.165 399.066,223.155C396.746,228.139 396.29,233.789 397.781,239.081L397.781,239.081Z" style="fill:rgb(47,46,65);fill-rule:nonzero;"/>
    <path d="M406.299,216.447C406.534,222.555 403.1,228.213 397.573,230.825C396.476,231.322 395.52,229.694 396.625,229.193C401.566,226.914 404.641,221.878 404.413,216.443C404.35,215.229 406.236,215.238 406.299,216.448L406.299,216.447L406.299,216.447Z" style="fill:rgb(1,191,113);fill-rule:nonzero;"/>
    <path d="M482.355,225.764C479.224,226.633 477.391,229.875 478.26,233.006C478.344,233.309 478.452,233.605 478.584,233.891L458.888,255.614L463.557,262.539L486.761,236.567C489.6,234.996 490.628,231.422 489.057,228.583C487.743,226.207 484.972,225.042 482.355,225.764L482.355,225.764L482.355,225.764Z" style="fill:rgb(255,182,182);fill-rule:nonzero;"/>
    <path d="M426.37,296.237C426.37,296.237 440.339,298.745 444.692,292.865C449.045,286.985 453.805,282.268 454.671,279.394C455.537,276.52 460.007,275.332 459.875,272.71C459.742,270.088 463.109,271.26 463.723,267.387C464.336,263.515 464.084,262.517 465.082,262.265C466.08,262.012 475.784,250.38 475.784,250.38L468.078,243.114L440.777,262.56L426.37,296.237L426.37,296.237Z" style="fill:rgb(1,191,113);fill-rule:nonzero;"/>
    <path d="M321.308,507.926C310.346,506.621 300.559,500.438 294.674,491.099C290.894,484.97 288.944,477.691 287.058,470.652C286.509,468.604 285.942,466.486 285.341,464.443C283.951,459.878 285.478,454.927 289.198,451.937C292.794,448.923 297.862,448.4 301.998,450.616L302.439,450.85L303.212,468.23C304.358,465.902 306.872,460.642 308.864,455.39L309.031,454.95L309.413,455.226C313.418,458.103 317.045,461.473 320.207,465.256C331.511,478.998 336.197,497.016 333.022,514.524L332.926,515.039L321.308,507.926L321.308,507.926Z" style="fill:rgb(242,242,242);fill-rule:nonzero;"/>
    <path d="M250.438,514.863C250.436,515.518 250.966,516.051 251.621,516.053L541.918,516.053C542.575,516.053 543.108,515.52 543.108,514.863C543.108,514.206 542.575,513.673 541.918,513.673L251.628,513.673C250.973,513.671 250.44,514.201 250.438,514.856L250.438,514.863Z" style="fill:rgb(204,204,204);fill-rule:nonzero;"/>
    <g>
        <ellipse cx="163.586" cy="8.645" rx="8.457" ry="8.645" style="fill:rgb(63,61,86);"/>
        <ellipse cx="192.799" cy="8.645" rx="8.457" ry="8.645" style="fill:rgb(63,61,86);"/>
        <ellipse cx="222.013" cy="8.645" rx="8.457" ry="8.645" style="fill:rgb(63,61,86);"/>
        <path d="M255.325,15.478C255.065,15.478 254.806,15.377 254.61,15.177L248.904,9.344C248.523,8.955 248.523,8.334 248.904,7.946L254.61,2.113C254.997,1.719 255.631,1.712 256.024,2.097C256.419,2.484 256.426,3.117 256.039,3.512L251.018,8.645L256.039,13.779C256.426,14.173 256.419,14.806 256.024,15.193C255.83,15.383 255.577,15.478 255.325,15.478Z" style="fill:rgb(63,61,86);fill-rule:nonzero;"/>
        <path d="M264.913,15.478C264.661,15.478 264.408,15.383 264.214,15.193C263.819,14.806 263.812,14.174 264.198,13.779L269.22,8.645L264.198,3.512C263.812,3.117 263.819,2.484 264.214,2.097C264.608,1.711 265.242,1.718 265.628,2.113L271.333,7.946C271.714,8.334 271.714,8.955 271.333,9.344L265.628,15.177C265.432,15.377 265.173,15.478 264.913,15.478Z" style="fill:rgb(63,61,86);fill-rule:nonzero;"/>
        <path d="M563.423,1.001L552.813,1.001C551.603,1.001 550.623,1.981 550.623,3.191L550.623,13.811C550.623,15.021 551.603,16.001 552.813,16.001L563.423,16.001C564.633,16.001 565.623,15.021 565.623,13.811L565.623,3.191C565.623,1.981 564.633,1.001 563.423,1.001Z" style="fill:rgb(63,61,86);fill-rule:nonzero;"/>
        <path d="M537.423,1.001L526.813,1.001C525.603,1.001 524.623,1.981 524.623,3.191L524.623,13.811C524.623,15.021 525.603,16.001 526.813,16.001L537.423,16.001C538.633,16.001 539.623,15.021 539.623,13.811L539.623,3.191C539.623,1.981 538.633,1.001 537.423,1.001Z" style="fill:rgb(63,61,86);fill-rule:nonzero;"/>
        <path d="M587.923,1.501L577.313,1.501C576.103,1.501 575.123,2.481 575.123,3.691L575.123,14.311C575.123,15.521 576.103,16.501 577.313,16.501L587.923,16.501C589.133,16.501 590.123,15.521 590.123,14.311L590.123,3.691C590.123,2.481 589.133,1.501 587.923,1.501Z" style="fill:rgb(63,61,86);fill-rule:nonzero;"/>
        <path d="M428.001,5.541L343.191,5.541C341.711,5.541 340.521,6.741 340.521,8.211C340.521,9.681 341.711,10.881 343.191,10.881L428.001,10.881C429.471,10.881 430.671,9.681 430.671,8.211C430.671,6.741 429.471,5.541 428.001,5.541Z" style="fill:rgb(63,61,86);fill-rule:nonzero;"/>
    </g>
</svg>
